<svg xmlns="http://www.w3.org/2000/svg" width="348.996" height="216.82" viewBox="0 0 348.996 216.82"><path d="M141.536,6415.449l-.468-6.526-6.453.462-3.8-1.778-4.225.3.243,2.034-13.345.955-5.6-2.809-2.071,3.358,5.384,2.762,2.564,35.818-1.79-.039-.145-1.137-2.57,3.382.067.928,24.065-1.723,3.01-2.973-9.887.544-1.3-18.2c3.388.107,8.2,2.969,10.34,6.021l.058,0,3.011-2.991-2.027-2.138-1.429-1.08-.56-7.827c-1.681,3.385-6.567,4.339-9.906,4.928l-.9-16.624.29-.021c6.2-.444,11.155,2.756,17.883,11.251l.058-.005s2.916-2.917,3.01-2.99Z" transform="translate(-78.769 -6357.047)" fill="#040506"/><path d="M144.817,6419.135l-.058.005c-6.728-8.5-11.678-11.7-17.883-11.252l-.29.022,1.345,18.787c3.338-.589,7.691-4.106,9.372-7.49l.058,0,1.034,14.439-.058,0c-2.142-3.052-6.951-5.914-10.34-6.021l1.445,20.179,6.669-.477.066.928-24.065,1.722-.066-.927,4.639-.332-2.7-37.692-5.386-2.762,35.257-2.524Z" transform="translate(-78.769 -6357.047)" fill="#fff"/><path d="M136.4,6448.449l-24.482,1.753-.1-1.346,4.638-.332-2.675-37.366-5.946-3.05,36.212-2.592.988,13.813-.376.027-.069-.087c-6.71-8.471-11.674-11.6-17.7-11.172l-.081.006,1.313,18.344c3.215-.688,7.364-4.053,8.993-7.333l.053-.107.386-.028,1.064,14.857-.385.027-.068-.1c-2.1-2.985-6.678-5.7-9.943-5.92l1.413,19.735,6.668-.478Zm-24.1,1.3,23.647-1.693-.036-.51-6.669.477-1.476-20.62.232.008c3.211.1,7.788,2.672,10.138,5.621l-.945-13.191c-1.889,3.279-6.051,6.5-9.23,7.057l-.228.041-1.377-19.229.5-.035c6.081-.436,11.075,2.623,17.7,10.882l-.9-12.6-34.3,2.456,4.824,2.475,2.722,38.018-4.639.331Z" transform="translate(-78.769 -6357.047)" fill="#040506"/><path d="M138.268,6516.878l-8.089-.829,3.749-3.117,6.45.606-.267,3.34Z" transform="translate(-78.769 -6357.047)" fill="#040506"/><path d="M140.377,6534.164l-7.615-4.593c-4.3-2.558-5.756-4.825-5.756-7.383a5.337,5.337,0,0,1,5.522-5.349,9.563,9.563,0,0,1,2.85.349l7.673,13.778h.059l.017-.065,3.153-2.7-1.741-2.589,2-7.492a32.311,32.311,0,0,0-13.2-2.559c-9.477,0-14.825,5.7-14.825,12.965,0,5.871,3.2,9.825,8.6,12.79l6.627,3.6c3.373,1.8,4.884,4.185,4.884,6.976a6.122,6.122,0,0,1-2.026,4.62l-9.066-.479-5.733-10.806,1.355-5.88-2.843,3.185-3.43,14.883a46.876,46.876,0,0,0,14.708,2.325c9.709,0,16.453-5.813,16.453-13.836,0-5.291-2.79-8.837-7.674-11.743" transform="translate(-78.769 -6357.047)" fill="#040506"/><path d="M119.9,6554.442l3.43-14.883h.058l8.08,15.232a6.777,6.777,0,0,0,3.024.581c4.127,0,7.15-2.732,7.15-6.452,0-2.791-1.511-5.175-4.883-6.977l-6.627-3.6c-5.407-2.964-8.6-6.918-8.6-12.789,0-7.267,5.348-12.964,14.824-12.964a32.324,32.324,0,0,1,13.2,2.557l-3.429,12.848h-.058l-7.674-13.778a9.561,9.561,0,0,0-2.849-.349,5.337,5.337,0,0,0-5.523,5.349c0,2.558,1.453,4.825,5.756,7.383l7.615,4.593c4.884,2.907,7.674,6.453,7.674,11.743,0,8.023-6.744,13.836-16.452,13.836a46.862,46.862,0,0,1-14.708-2.325" transform="translate(-78.769 -6357.047)" fill="#fff"/><path d="M134.608,6556.977a47.3,47.3,0,0,1-14.775-2.336l-.18-.06,3.51-15.231h.351l8.1,15.276a6.528,6.528,0,0,0,2.874.537c4.022,0,6.941-2.626,6.941-6.244,0-2.814-1.606-5.1-4.773-6.791l-6.628-3.6c-5.946-3.26-8.714-7.383-8.714-12.975,0-7.879,6.042-13.173,15.034-13.173a32.553,32.553,0,0,1,13.279,2.574l.167.072L146.28,6528.2h-.342l-7.69-13.807a9.221,9.221,0,0,0-2.71-.32,5.114,5.114,0,0,0-5.314,5.139c0,2.693,1.691,4.847,5.654,7.2l7.616,4.594c5.3,3.156,7.776,6.946,7.776,11.922,0,8.27-6.852,14.046-16.662,14.046m-14.462-2.674a46.924,46.924,0,0,0,14.462,2.255c9.563,0,16.243-5.6,16.243-13.627,0-4.88-2.335-8.446-7.572-11.564l-7.616-4.593c-4.1-2.44-5.857-4.7-5.857-7.562a5.523,5.523,0,0,1,5.732-5.558,9.812,9.812,0,0,1,2.9.355l.088.022,7.506,13.476,3.268-12.242a32.158,32.158,0,0,0-12.947-2.471c-8.742,0-14.615,5.126-14.615,12.754,0,5.423,2.7,9.429,8.495,12.607l6.627,3.6c3.312,1.77,4.993,4.18,4.993,7.16,0,3.861-3.1,6.662-7.36,6.662a6.994,6.994,0,0,1-3.1-.6l-.07-.029-7.894-14.88Z" transform="translate(-78.769 -6357.047)" fill="#040506"/><path d="M273.454,6555.717v-11.606l2.088-4.065.736-2.3-2.882,3.163c-2.628,6.638-5.976,11.3-9.762,13.992h-8.725v-35.038l5.174-3.139,3.83-3.158h-24.7l-2.268,3.158,5.174,3.139v35.7l-1.833-1.071-2.817,3.163v.931h35.985l3.235-2.75Z" transform="translate(-78.769 -6357.047)" fill="#040506"/><path d="M276.464,6537.932V6555.6H240.478v-.931h4.651v-37.788l-5.175-3.139h23.138l-5.174,3.139v37.788h.466c7.15,0,13.6-5.58,18.021-16.742Z" transform="translate(-78.769 -6357.047)" fill="#fff"/><path d="M276.673,6555.814h-36.4v-1.349h4.651V6517l-5.713-3.466h24.635L258.128,6517v37.461h.255c7.257,0,13.588-5.9,17.828-16.61l.052-.133h.41Zm-35.986-.418h35.567v-16.535c-4.3,10.342-10.627,16.023-17.871,16.023h-.674v-38.115l4.635-2.813H240.7l4.635,2.813v38.115h-4.651Z" transform="translate(-78.769 -6357.047)" fill="#040506"/><path d="M237.06,6516.743l3.769-3.185-5.606,3.185h-5.185l-6.48-3.185-3.009,3.185,6.918,3.082.988,22.149c.307,6.618-.668,10.972-2.853,13.442l-12.111-.473.724,1.689c-2.892-1.97-4.421-6.333-4.421-14.425v-22.382l5.174-3.082,3.77-3.185H194.079l-2.249,3.185,5.174,3.082v21.568c0,12.441,5.233,18.37,18.894,18.37,8.128,0,12.354-2.305,14.065-9.1l-.009.188,2.921-9.315-1.663-6.26.674-15.448Zm-12.746,39.82,1.278-1.136a7.029,7.029,0,0,1-1.278,1.136" transform="translate(-78.769 -6357.047)" fill="#040506"/><path d="M200.013,6538.4v-21.569l-5.174-3.081h23.139l-5.175,3.081v22.383c0,11.917,3.314,15.755,9.418,15.755,6.57,0,9.767-4.71,9.244-15.988l-.988-22.15-6.918-3.081h16.51l-5.174,3.081-1.047,24.01c-.523,12.151-4.534,15.929-14.94,15.929-13.663,0-18.9-5.929-18.9-18.37" transform="translate(-78.769 -6357.047)" fill="#fff"/><path d="M218.908,6556.976c-13.391,0-19.1-5.556-19.1-18.579v-21.45l-5.725-3.41h24.659l-5.726,3.41v22.264c0,13.7,4.656,15.545,9.209,15.545a7.9,7.9,0,0,0,6.049-2.269c2.318-2.428,3.295-6.844,2.986-13.5l-.983-22.021-6.8-3.029.086-.4h17.27l-5.73,3.413-1.041,23.9c-.52,12.059-4.343,16.129-15.15,16.129m-23.308-43.02,4.623,2.753V6538.4c0,12.73,5.588,18.161,18.685,18.161,10.508,0,14.225-3.969,14.731-15.729l1.052-24.123,4.618-2.75H224.543l6.137,2.734.994,22.279c.314,6.775-.7,11.291-3.1,13.807a8.294,8.294,0,0,1-6.352,2.4c-6.748,0-9.627-4.775-9.627-15.964v-22.5l4.623-2.753Z" transform="translate(-78.769 -6357.047)" fill="#040506"/><path d="M170.986,6515.545a23.508,23.508,0,0,0-3.322.236l.064-.236-2.412-.43-2.393,1.911.016,0c-8.281,3.282-12.939,11.6-12.939,20.439,0,12.789,9.592,22.265,22.266,22.265,13.313,0,20.929-10.522,20.929-21.917,0-12.732-9.477-22.266-22.209-22.266m8.962,40.037c-8.023,0-20.879-19.341-20.879-31.84,0-3.255,1.569-4.942,3.9-4.942,8.313,0,21.219,20.231,21.219,32.731,0,3.372-1.677,4.051-4.235,4.051" transform="translate(-78.769 -6357.047)" fill="#040506"/><path d="M152.98,6534.5c0-11.4,7.732-21.918,20.987-21.918,12.732,0,22.208,9.535,22.208,22.266,0,11.4-7.616,21.918-20.929,21.918-12.673,0-22.266-9.477-22.266-22.266m34.184,14.069c0-12.5-12.907-32.731-21.22-32.731-2.325,0-3.9,1.686-3.9,4.942,0,12.5,13.139,32.73,21.162,32.73,2.558,0,3.953-1.57,3.953-4.941" transform="translate(-78.769 -6357.047)" fill="#fff"/><path d="M175.246,6556.977a21.982,21.982,0,0,1-22.475-22.475,23.075,23.075,0,0,1,5.575-15.371,20.218,20.218,0,0,1,15.621-6.756c12.78,0,22.417,9.663,22.417,22.475,0,11-7.26,22.127-21.138,22.127m-1.279-44.183c-10.325,0-20.778,7.456-20.778,21.708a21.573,21.573,0,0,0,22.057,22.056c13.6,0,20.72-10.921,20.72-21.708,0-12.574-9.458-22.056-22-22.056m9.244,40.927c-8.189,0-21.371-20.318-21.371-32.939,0-3.226,1.534-5.152,4.1-5.152,3.9,0,9.224,4.512,13.9,11.775,4.642,7.2,7.526,15.314,7.526,21.166,0,3.417-1.4,5.15-4.162,5.15m-17.267-37.672c-2.342,0-3.686,1.725-3.686,4.733,0,5.735,2.889,13.758,7.539,20.939,4.627,7.143,9.767,11.582,13.414,11.582,2.519,0,3.744-1.549,3.744-4.732,0-12.462-12.96-32.522-21.011-32.522" transform="translate(-78.769 -6357.047)" fill="#040506"/><path d="M144.293,6459.056l-3.01,3.185,6.337,3.14-6.976,21.511-10.755-21.511,5.174-3.14H118.957l-5.339-3.185-2.332,3.185,4.593,3.14,12.731,25.58v10.372h-1.851v-1.349l-2.8,3.185v.931h22.092l3.219-2.767H141.4v-13.744l11.278-22.208,5.174-3.14,3.758-3.185Z" transform="translate(-78.769 -6357.047)" fill="#040506"/><path d="M144.409,6484.613v15.58h4.651v.931H126.969v-.931h4.651v-12.208l-12.732-25.58-4.593-3.139h23.778L132.9,6462.4l10.755,21.511,6.976-21.511-6.337-3.139h16.569l-5.174,3.139Z" transform="translate(-78.769 -6357.047)" fill="#fff"/><path d="M149.27,6501.333H126.759v-1.35h4.651v-11.949l-12.685-25.488-5.107-3.49h25.2l-5.649,3.427,10.44,20.881,6.763-20.852-6.175-3.059.093-.4H161.61l-5.763,3.5-11.228,22.111v15.32h4.651Zm-22.092-.419h21.673v-.512H144.2v-15.84l.023-.044,11.3-22.261,4.585-2.783H145.187l5.7,2.823-7.19,22.169-11.07-22.14,4.7-2.852H114.972l4.079,2.789.024.048,12.754,25.625V6500.4h-4.651Z" transform="translate(-78.769 -6357.047)" fill="#040506"/><path d="M135.063,6462.241l3.758-3.185-5.612,3.206Z" transform="translate(-78.769 -6357.047)" fill="#040506"/><path d="M170.47,6461.079a23.509,23.509,0,0,0-3.322.236l.064-.236-2.412-.431-2.393,1.911.015,0c-8.28,3.283-12.939,11.6-12.939,20.439,0,12.79,9.593,22.265,22.266,22.265,13.313,0,20.929-10.522,20.929-21.916,0-12.732-9.476-22.266-22.208-22.266m8.962,40.037c-8.023,0-20.879-19.341-20.879-31.84,0-3.256,1.569-4.942,3.9-4.942,8.313,0,21.219,20.231,21.219,32.731,0,3.371-1.677,4.051-4.235,4.051" transform="translate(-78.769 -6357.047)" fill="#040506"/><path d="M152.492,6480.02c0-11.4,7.732-21.918,20.988-21.918,12.731,0,22.208,9.535,22.208,22.266,0,11.4-7.616,21.918-20.93,21.918-12.673,0-22.266-9.476-22.266-22.266m34.184,14.069c0-12.5-12.906-32.731-21.219-32.731-2.326,0-3.9,1.686-3.9,4.942,0,12.5,13.139,32.73,21.162,32.73,2.557,0,3.952-1.569,3.952-4.941" transform="translate(-78.769 -6357.047)" fill="#fff"/><path d="M173.48,6457.894a20.215,20.215,0,0,0-15.621,6.756,23.068,23.068,0,0,0-5.576,15.37,21.983,21.983,0,0,0,22.476,22.475c13.877,0,21.138-11.131,21.138-22.126,0-12.814-9.637-22.475-22.417-22.475m1.279,44.182A21.572,21.572,0,0,1,152.7,6480.02c0-14.251,10.452-21.708,20.778-21.708,12.541,0,22,9.483,22,22.057,0,10.787-7.117,21.707-20.719,21.707" transform="translate(-78.769 -6357.047)" fill="#040506"/><path d="M165.457,6461.149c-2.57,0-4.1,1.926-4.1,5.151,0,12.622,13.182,32.94,21.37,32.94,2.762,0,4.163-1.733,4.163-5.151,0-5.852-2.884-13.962-7.526-21.166-4.679-7.262-10.007-11.774-13.9-11.774m17.266,37.672c-3.647,0-8.786-4.438-13.413-11.582-4.651-7.181-7.539-15.2-7.539-20.939,0-3.008,1.343-4.733,3.686-4.733,8.051,0,21.01,20.06,21.01,32.522,0,3.184-1.224,4.732-3.744,4.732" transform="translate(-78.769 -6357.047)" fill="#040506"/><path d="M237.066,6462.241l3.77-3.185-5.606,3.185h-5.186l-6.479-3.185-3.009,3.185,6.917,3.082.989,22.149c.307,6.618-.669,10.972-2.854,13.442l-12.111-.473.724,1.689c-2.892-1.97-4.421-6.334-4.421-14.425v-22.382l5.175-3.082,3.769-3.185H194.085l-2.249,3.185,5.174,3.082v21.567c0,12.442,5.233,18.371,18.9,18.371,8.128,0,12.354-2.3,14.064-9.1l-.009.188,2.922-9.315-1.664-6.261.674-15.447Zm-12.746,39.82,1.278-1.136a7.048,7.048,0,0,1-1.278,1.136" transform="translate(-78.769 -6357.047)" fill="#040506"/><path d="M200.02,6483.915v-21.568l-5.174-3.082h23.138l-5.174,3.082v22.381c0,11.918,3.313,15.756,9.418,15.756,6.569,0,9.767-4.709,9.243-15.988l-.988-22.149-6.918-3.082h16.511l-5.175,3.082-1.046,24.01c-.524,12.15-4.535,15.929-14.941,15.929-13.662,0-18.894-5.93-18.894-18.371" transform="translate(-78.769 -6357.047)" fill="#fff"/><path d="M218.914,6502.5c-13.391,0-19.1-5.557-19.1-18.58v-21.45l-5.725-3.409h24.659l-5.725,3.409v22.264c0,13.7,4.655,15.546,9.209,15.546a7.9,7.9,0,0,0,6.048-2.27c2.318-2.428,3.295-6.844,2.986-13.5l-.983-22.021-6.8-3.029.085-.4h17.271l-5.73,3.412-1.042,23.9c-.519,12.059-4.342,16.129-15.15,16.129m-23.308-43.02,4.623,2.753v21.687c0,12.73,5.588,18.162,18.685,18.162,10.508,0,14.225-3.969,14.732-15.729l1.051-24.123,4.618-2.75H224.549l6.137,2.733.994,22.279c.315,6.775-.7,11.292-3.1,13.807a8.292,8.292,0,0,1-6.351,2.4c-6.748,0-9.627-4.774-9.627-15.964v-22.5l4.622-2.753Z" transform="translate(-78.769 -6357.047)" fill="#040506"/><path d="M278.5,6501.11l-11.082-17.533c6.046-1.628,9.477-5.174,9.477-10.929,0-5.343-3.858-8.6-10.806-9.839l-4.207-3.334-21.607-.439-3.205,3.205h-.115l5.175,3.139v35.952h-1.852v-1.348l-2.8,3.185v.93h22.382l3.218-2.767h-8.16v-16.418l11.1,19.185h16.569l3.218-2.767s-6.028-.212-7.31-.222m-18.783-18.39-1.475-1.466-1.925-.643.265.643.248,2.352a18.454,18.454,0,0,1-1.911.2v-20.638h1.861c4.534,0,6.743,3.72,6.743,9.592,0,5.168-.747,8.394-3.806,9.956" transform="translate(-78.769 -6357.047)" fill="#040506"/><path d="M285.6,6500.193v.93H269.028l-11.1-19.185v18.255h4.941v.93H240.484v-.93h4.651V6462.4l-5.174-3.139h21.917c11.452,0,18.022,3.429,18.022,10.406,0,5.755-3.43,9.3-9.476,10.929l12.383,19.592Zm-27.672-40v20.638c7.15-.407,8.6-3.837,8.6-11.046,0-5.871-2.209-9.592-6.743-9.592Z" transform="translate(-78.769 -6357.047)" fill="#fff"/><path d="M285.807,6501.333h-16.9l-10.774-18.615v17.266h4.941v1.349h-22.8v-1.349h4.651v-37.462l-5.713-3.466h22.666c15.068,0,18.231,5.773,18.231,10.616,0,5.585-3.148,9.3-9.358,11.056l12.171,19.256h2.885Zm-16.658-.419h16.239v-.512h-2.7l-.062-.1L270.1,6480.473l.275-.074c6.185-1.665,9.32-5.274,9.32-10.727,0-6.672-6.159-10.2-17.812-10.2H240.709l4.635,2.813V6500.4h-4.651v.512h21.964v-.512h-4.942v-19.243Zm-11.434-19.859v-21.069h2.07c4.484,0,6.953,3.481,6.953,9.8,0,7.132-1.361,10.831-8.8,11.255Zm.419-20.65v20.206c6.954-.464,8.185-3.877,8.185-10.823,0-6.051-2.321-9.383-6.534-9.383Z" transform="translate(-78.769 -6357.047)" fill="#040506"/><path d="M264.723,6439.143l-.829-11.576,1.792-4.2.57-2.347-2.649,3.36c-2.147,6.809-5.153,11.7-8.737,14.654l-8.7.623-2.5-34.949,4.937-3.5,3.594-3.423-24.636,1.764-2.037,3.311,5.385,2.762,2.549,35.6-1.9-.936-2.585,3.356.067.928,35.894-2.57,3.03-2.974Z" transform="translate(-78.769 -6357.047)" fill="#040506"/><path d="M266.473,6421.209l1.262,17.628-35.894,2.569-.067-.927,4.639-.333-2.7-37.691-5.384-2.762,23.078-1.652-4.937,3.5,2.7,37.691.464-.033c7.132-.511,13.17-6.538,16.78-17.987Z" transform="translate(-78.769 -6357.047)" fill="#fff"/><path d="M267.959,6439.031l-36.312,2.6-.1-1.345,4.639-.332-2.675-37.366-5.946-3.05,24.572-1.758-5.451,3.865,2.675,37.366.255-.019c7.237-.518,13.132-6.854,16.6-17.841l.043-.136.408-.029Zm-35.924,2.152,35.477-2.54-1.181-16.493c-3.555,10.623-9.457,16.741-16.682,17.259l-.672.048-2.722-38.018,4.423-3.137-21.586,1.546,4.824,2.475,2.721,38.017-4.639.332Z" transform="translate(-78.769 -6357.047)" fill="#040506"/><path d="M227.752,6426.915,225.1,6430.3c-2.767,6.133-5.838,9.969-9.279,12.22l-8.044.631-1.325-18.509c3.782-.1,7.882,2.641,10.41,7.006l.058,0,3.012-2.986-3.566-4.754-.5-6.96,2.808-2.9-.33-1.948-2.643,3.378a15.444,15.444,0,0,1-3.85,5.609l-2.481.177-2.978,2.575-1.329-18.556c6.847-.432,12.957,2.686,19.122,12.27l.058,0,2.789-3.183-5.8-12.529-14.208-.148-13.4,2.653-3.54-2.006-3.007,3.3,5.385,2.762,2.555,35.688-1.64.08-.276-1.119-2.58,3.374.066.928,35.6-2.549,3.022-3Z" transform="translate(-78.769 -6357.047)" fill="#040506"/><path d="M207.851,6402.092l1.328,18.556c3.641-.436,7.48-3.8,9.31-8.36l.058,0,1.158,16.179-.058,0c-2.528-4.365-6.628-7.1-10.41-7.007l1.47,20.527c6.834-.6,12.45-4.387,17.178-14.868l.058,0,1.038,14.5-35.6,2.548-.066-.928,4.639-.332-2.7-37.692-5.385-2.762,36.126-2.586,1.038,14.5-.058,0c-6.165-9.583-12.274-12.7-19.121-12.269" transform="translate(-78.769 -6357.047)" fill="#fff"/><path d="M229.2,6441.805l-36.021,2.579-.1-1.346,4.639-.332-2.676-37.365-5.945-3.05,37.081-2.655,1.067,14.915-.39.028-.067-.1c-5.661-8.8-11.443-12.568-18.721-12.187l1.3,18.122c3.543-.538,7.187-3.875,8.923-8.2l.048-.122.4-.028,1.189,16.6-.4.028-.065-.113c-2.434-4.2-6.338-6.89-10-6.9l1.438,20.092c7.345-.728,12.532-5.279,16.8-14.725l.051-.114.391-.029Zm-35.633,2.131,35.186-2.519-.972-13.579c-4.319,9.261-9.6,13.7-17.06,14.357l-.212.019-1.5-20.958.22-.006c3.69-.093,7.633,2.428,10.211,6.477l-1.052-14.682c-1.926,4.214-5.621,7.384-9.187,7.81l-.218.027-1.359-18.986.21-.013c7.385-.466,13.245,3.173,18.934,11.787l-.973-13.586-35.17,2.517,4.823,2.475,2.722,38.018-4.639.332Z" transform="translate(-78.769 -6357.047)" fill="#040506"/><path d="M187.154,6405.683l3.533-3.446-5.365,3.577-5.171.37-6.691-2.714-2.774,3.392,7.12,2.579,2.568,22.023c.779,6.58.116,10.992-1.887,13.611l-12.113.393.842,1.633c-3.025-1.758-4.862-6-5.439-14.072l-1.6-22.326,4.94-3.443,3.533-3.446-24.6,1.761-2.016,3.338,5.381,2.7,1.54,21.514c.889,12.409,6.531,17.95,20.158,16.975,8.107-.581,12.158-3.182,13.379-10.085l0,.188,2.249-9.5-2.106-6.127-.431-15.456Zm-9.869,40.629,1.193-1.224a7.18,7.18,0,0,1-1.193,1.224" transform="translate(-78.769 -6357.047)" fill="#040506"/><path d="M151.749,6429.926l-1.54-21.513-5.381-2.7,23.079-1.652-4.941,3.443,1.6,22.325c.851,11.887,4.43,15.478,10.519,15.042,6.553-.468,9.406-5.394,8.079-16.607l-2.568-22.022-7.12-2.58,16.468-1.178-4.94,3.442.67,24.024c.346,12.157-3.385,16.212-13.765,16.956-13.628.975-19.269-4.566-20.158-16.976" transform="translate(-78.769 -6357.047)" fill="#fff"/><path d="M171.922,6447.11c-13.357.956-19.452-4.178-20.382-17.169l-1.531-21.394-5.955-2.992,24.6-1.761-5.467,3.81,1.59,22.206c.978,13.664,5.753,15.174,10.295,14.848a7.891,7.891,0,0,0,5.871-2.7c2.139-2.588,2.8-7.061,2.015-13.678l-2.553-21.894-7-2.536.057-.4,17.227-1.233-5.472,3.813.667,23.91c.343,12.066-3.179,16.4-13.959,17.17M145.6,6405.864l4.808,2.416,1.549,21.632c.909,12.7,6.87,17.716,19.934,16.781,10.481-.751,13.9-4.975,13.571-16.741l-.674-24.136,4.41-3.074-14.728,1.055,6.316,2.288,2.582,22.151c.8,6.736.108,11.314-2.107,13.994a8.293,8.293,0,0,1-6.164,2.846c-6.731.482-9.943-4.075-10.742-15.236l-1.607-22.444,4.414-3.076Z" transform="translate(-78.769 -6357.047)" fill="#040506"/><path d="M297.192,6387.182a1.421,1.421,0,1,1-1.284-1.547,1.419,1.419,0,0,1,1.284,1.547" transform="translate(-78.769 -6357.047)" fill="#d2dd98"/><path d="M281.167,6407.792a2.012,2.012,0,1,1-1.818-2.188,2.012,2.012,0,0,1,1.818,2.188" transform="translate(-78.769 -6357.047)" fill="#d2dd98"/><path d="M82.784,6478.368a2.012,2.012,0,1,1-1.818-2.188,2.013,2.013,0,0,1,1.818,2.188" transform="translate(-78.769 -6357.047)" fill="#d2dd98"/><path d="M329.874,6486.842a3,3,0,1,1-2.714-3.24,2.988,2.988,0,0,1,2.714,3.24" transform="translate(-78.769 -6357.047)" fill="#d2dd98"/><path d="M427.752,6499.089a2.91,2.91,0,1,1-2.622-3.231,2.942,2.942,0,0,1,2.622,3.231" transform="translate(-78.769 -6357.047)" fill="#d2dd98"/><path d="M164.828,6360.3a3,3,0,1,1-2.713-3.24,2.987,2.987,0,0,1,2.713,3.24" transform="translate(-78.769 -6357.047)" fill="#d2dd98"/><path d="M248.44,6572.041a2.012,2.012,0,1,1-1.818-2.189,2.012,2.012,0,0,1,1.818,2.189" transform="translate(-78.769 -6357.047)" fill="#d2dd98"/><path d="M350.443,6534.4a2.011,2.011,0,1,1-1.817-2.188,2.012,2.012,0,0,1,1.817,2.188" transform="translate(-78.769 -6357.047)" fill="#d2dd98"/><path d="M102.766,6512.652a3,3,0,1,1-2.714-3.24,2.988,2.988,0,0,1,2.714,3.24" transform="translate(-78.769 -6357.047)" fill="#d2dd98"/></svg>